HIERARCHY
ROOT Hips
{
  OFFSET 50.2416 97.009 17.4682
  CHANNELS 6 Xposition Yposition Zposition Zrotation Xrotation Yrotation
  JOINT spine
  {
    OFFSET 0 7.96568 0.458067
    CHANNELS 3 Zrotation Xrotation Yrotation
    JOINT spine1
    {
      OFFSET 0 10.2431 0
      CHANNELS 3 Zrotation Xrotation Yrotation
      JOINT spine2
      {
        OFFSET 0 9.81475 0
        CHANNELS 3 Zrotation Xrotation Yrotation
        JOINT Neck
        {
          OFFSET 0 25.1986 1.20138
          CHANNELS 3 Zrotation Xrotation Yrotation
          JOINT Head
          {
            OFFSET 0 7.61315 0
            CHANNELS 3 Zrotation Xrotation Yrotation
            End Site
            {
              OFFSET 0 18.4281 -6.07733
            }
          }
        }
        JOINT RightShoulder
        {
          OFFSET -4.1327 10.5992 -0.575451
          CHANNELS 3 Zrotation Xrotation Yrotation
          JOINT RightArm
          {
            OFFSET 0 13.9018 0
            CHANNELS 3 Zrotation Xrotation Yrotation
            JOINT RightArmRoll
            {
              OFFSET 0 7.01788 0
              CHANNELS 3 Zrotation Xrotation Yrotation
              JOINT RightForeArm
              {
                OFFSET 0 20.4406 0
                CHANNELS 3 Zrotation Xrotation Yrotation
                JOINT RightForeArmRoll
                {
                  OFFSET 0 7.87515 0
                  CHANNELS 3 Zrotation Xrotation Yrotation
                  JOINT RightHand
                  {
                    OFFSET 0 15.8037 0
                    CHANNELS 3 Zrotation Xrotation Yrotation
                    End Site
                    {
                      OFFSET 0 0 0
                    }
                  }
                }
              }
            }
          }
        }
        JOINT LeftShoulder
        {
          OFFSET 4.1327 10.5992 -0.575451
          CHANNELS 3 Zrotation Xrotation Yrotation
          JOINT LeftArm
          {
            OFFSET 0 13.9018 0
            CHANNELS 3 Zrotation Xrotation Yrotation
            JOINT LeftArmRoll
            {
              OFFSET 0 7.01789 0
              CHANNELS 3 Zrotation Xrotation Yrotation
              JOINT LeftForeArm
              {
                OFFSET 0 20.4406 0
                CHANNELS 3 Zrotation Xrotation Yrotation
                JOINT LeftForeArmRoll
                {
                  OFFSET 0 7.87516 0
                  CHANNELS 3 Zrotation Xrotation Yrotation
                  JOINT LeftHand
                  {
                    OFFSET 0 15.8037 0
                    CHANNELS 3 Zrotation Xrotation Yrotation
                    End Site
                    {
                      OFFSET 0 0 0
                    }
                  }
                }
              }
            }
          }
        }
      }
    }
  }
  JOINT RightUpLeg
  {
    OFFSET -7.06048 -1.2947 -1.0861
    CHANNELS 3 Zrotation Xrotation Yrotation
    JOINT RightUpLegRoll
    {
      OFFSET 0 18.5308 0
      CHANNELS 3 Zrotation Xrotation Yrotation
      JOINT RightLeg
      {
        OFFSET 0 -22.9476 0
        CHANNELS 3 Zrotation Xrotation Yrotation
        JOINT RightLegRoll
        {
          OFFSET 0 23.0226 0
          CHANNELS 3 Zrotation Xrotation Yrotation
          JOINT RightFoot
          {
            OFFSET 0 19.1625 0
            CHANNELS 3 Zrotation Xrotation Yrotation
            JOINT RightToeBase
            {
              OFFSET 0 16.0188 0
              CHANNELS 3 Zrotation Xrotation Yrotation
              End Site
              {
                OFFSET 0.00678979 7.75782 -0.894206
              }
            }
          }
        }
      }
    }
  }
  JOINT LeftUpLeg
  {
    OFFSET 7.06048 -1.2947 -1.0861
    CHANNELS 3 Zrotation Xrotation Yrotation
    JOINT LeftUpLegRoll
    {
      OFFSET 0 18.5309 0
      CHANNELS 3 Zrotation Xrotation Yrotation
      JOINT LeftLeg
      {
        OFFSET 0 22.9475 0
        CHANNELS 3 Zrotation Xrotation Yrotation
        JOINT LeftLegRoll
        {
          OFFSET 0 23.2355 0
          CHANNELS 3 Zrotation Xrotation Yrotation
          JOINT LeftFoot
          {
            OFFSET 0 18.9496 0
            CHANNELS 3 Zrotation Xrotation Yrotation
            JOINT LeftToeBase
            {
              OFFSET 0 16.0188 0
              CHANNELS 3 Zrotation Xrotation Yrotation
              End Site
              {
                OFFSET -0.0304289 7.75782 -0.894206
              }
            }
          }
        }
      }
    }
  }
}
MOTION
Frames: 4
Frame Time: 0.00208333
45.7421 96.0578 15.0615 2.10148 -4.86064 21.8769 0.376301 0.213055 0.15061 0.752441 4.4297 0.26798 0.750449 6.07469 0.255635 -23.7401 10.9229 -0.770065 27.2102 11.6188 -6.9235 60.5237 -1.0095 -0.827318 109.242 -18.657 -17.6681 -1.66497e-006 3.48111e-006 -3.92608e-006 -150.842 85.3869 141.338 -3.07508e-005 7.43397e-006 -2.99999 8.03025 -4.9512 0.697601 -60.6289 -8.9467 5.59036 -103.911 -18.5449 29.7074 3.08192e-005 -1.68292e-005 1.8295e-007 -127.803 89.2594 136.097 -5.02941e-007 1.48404e-006 3 -8.03023 -4.95122 -0.697587 178.86 -6.60368 3.42865 -180 7.01503e-015 178.748 177.981 8.87186 179.678 -1.49267e-006 -2.57806e-006 0.183648 -20.3206 69.79 21.1641 8.22599 26.5967 -3.32192 -172.851 6.71719 0.895534 4.5067e-006 -1.99009e-005 -1.28802 3.39263 -14.0593 0.801924 5.33689e-007 -4.48146e-006 0.0785338 17.5273 65.8871 -17.9095 -8.12425 25.2333 3.48252 
45.7306 96.0838 15.0695 2.09535 -4.87259 21.7311 0.374155 0.21264 0.145952 0.748203 4.42884 0.258804 0.746314 6.07383 0.246519 -23.5902 11.0035 -0.727844 27.0437 11.5418 -6.83674 60.472 -1.06571 -0.855494 109.242 -19.2361 -18.2244 -1.66497e-006 3.48111e-006 -3.92608e-006 -150.554 85.2157 140.857 -3.07508e-005 7.43397e-006 -2.99999 8.03025 -4.9512 0.697601 -60.6356 -8.83907 5.52536 -103.93 -18.6046 29.6708 3.08192e-005 -1.68292e-005 1.8295e-007 -133.306 89.2301 141.64 -5.02941e-007 1.48404e-006 3 -8.03023 -4.95122 -0.697587 178.837 -6.59537 3.44375 -180 7.01503e-015 178.748 177.972 8.87778 179.679 -1.49267e-006 -2.57806e-006 0.183778 -20.3124 69.7813 21.1551 8.22449 26.5757 -3.31147 -172.822 6.65962 0.848148 4.5067e-006 -1.99009e-005 -1.28969 3.35841 -14.0435 0.796209 5.33689e-007 -4.48146e-006 0.0782057 17.5184 65.8747 -17.9008 -8.12425 25.2333 3.48252 
45.7338 96.0812 15.0774 2.08953 -4.88507 21.5819 0.371931 0.212428 0.141343 0.743808 4.42838 0.249628 0.742022 6.07338 0.237408 -23.4405 11.0832 -0.68432 26.8784 11.4672 -6.74929 60.4117 -1.12058 -0.881901 109.247 -19.8085 -18.7763 -1.66497e-006 3.48111e-006 -3.92608e-006 -150.301 85.0415 140.409 -3.07508e-005 7.43397e-006 -2.99999 8.03025 -4.9512 0.697601 -60.6436 -8.73353 5.46161 -103.946 -18.6629 29.6364 3.08192e-005 -1.68292e-005 1.8295e-007 -138.371 89.1936 146.745 -5.02941e-007 1.48404e-006 3 -8.03023 -4.95122 -0.697587 178.812 -6.58713 3.46042 -180 7.01503e-015 178.748 177.961 8.88336 179.679 -1.49267e-006 -2.57806e-006 0.183909 -20.3036 69.7721 21.1455 8.22289 26.5534 -3.30079 -172.793 6.59958 0.798847 4.5067e-006 -1.99009e-005 -1.29142 3.32229 -14.0258 0.790165 5.33689e-007 -4.48146e-006 0.0778217 17.5092 65.8617 -17.8918 -8.12425 25.2333 3.48252 
45.7354 96.0608 15.0891 2.08403 -4.89808 21.4291 0.36964 0.212432 0.136763 0.73928 4.42836 0.240432 0.737598 6.07335 0.228278 -23.2923 11.1612 -0.639596 26.7153 11.3953 -6.66147 60.3431 -1.17383 -0.906413 109.257 -20.3721 -19.3227 -1.66497e-006 3.48111e-006 -3.92608e-006 -150.077 84.8664 139.992 -3.07508e-005 7.43397e-006 -2.99999 8.03025 -4.9512 0.697601 -60.6534 -8.63023 5.39922 -103.959 -18.7197 29.6042 3.08192e-005 -1.68292e-005 1.8295e-007 -142.953 89.1509 151.368 -5.02941e-007 1.48404e-006 3 -8.03023 -4.95122 -0.697587 178.785 -6.57886 3.47841 -180 7.01503e-015 178.748 177.949 8.88883 179.68 -1.49267e-006 -2.57806e-006 0.184042 -20.2944 69.7624 21.1353 8.22121 26.5298 -3.28985 -172.763 6.53718 0.747963 4.5067e-006 -1.99009e-005 -1.29322 3.28457 -14.0066 0.78385 5.33689e-007 -4.48146e-006 0.0773845 17.4997 65.8485 -17.8827 -8.12426 25.2333 3.48253 
